PathFileType	4	(X/Y/Z)	C:\Vicon\SynologyDrive\Alex P\Athlete_3\Athlete_3_22_07_06\static_01\marker_experimental.trc																																																																																																																																																																																																																																											
DataRate	CameraRate	NumFrames	NumMarkers	Units	OrigDataRate	OrigDataStartFrame	OrigNumFrames																																																																																																																																																																																																																																							
200	200	4	79	mm	200	259	693																																																																																																																																																																																																																																							
Frame#	Time	GLAB			RFHD			LFHD			C7			T6			SPINMOL			SPINM2			SPINM3			T12			BELTOL			BELT2			BELT3			SACROL			SACR2			SACR3			LASI			RASI			LPSI			RPSI			LTHOL			LTH2			LTH3			LKNEL			LKNEM			LFIB			LSHAOL			LSHA2			LSHA3			LMALL			LMALM			LHEE			LTOE			LM5			RTHOL			RTH2			RTH3			RKNEL			RKNEM			RFIB			RSHAOL			RSHA2			RSHA3			RMALL			RMALM			RHEE			RTOE			RM5			STRN			XIPH			LACR			LUAOL			LUA2			LUA3			LCUBL			LCUBM			LLAOL			LLA2			LLA3			LWRR			LWRU			RACR			RUAOL			RUA2			RUA3			RCUBL			RCUBM			RLAOL			RLA2			RLA3			RWRR			RWRU			Bar:BL			Bar:BR			LKJCWK			RKJCWK			RAJCWK			LAJCWK			RHJCWK			LHJCWK		
		X1	Y1	Z1	X2	Y2	Z2	X3	Y3	Z3	X4	Y4	Z4	X5	Y5	Z5	X6	Y6	Z6	X7	Y7	Z7	X8	Y8	Z8	X9	Y9	Z9	X10	Y10	Z10	X11	Y11	Z11	X12	Y12	Z12	X13	Y13	Z13	X14	Y14	Z14	X15	Y15	Z15	X16	Y16	Z16	X17	Y17	Z17	X18	Y18	Z18	X19	Y19	Z19	X20	Y20	Z20	X21	Y21	Z21	X22	Y22	Z22	X23	Y23	Z23	X24	Y24	Z24	X25	Y25	Z25	X26	Y26	Z26	X27	Y27	Z27	X28	Y28	Z28	X29	Y29	Z29	X30	Y30	Z30	X31	Y31	Z31	X32	Y32	Z32	X33	Y33	Z33	X34	Y34	Z34	X35	Y35	Z35	X36	Y36	Z36	X37	Y37	Z37	X38	Y38	Z38	X39	Y39	Z39	X40	Y40	Z40	X41	Y41	Z41	X42	Y42	Z42	X43	Y43	Z43	X44	Y44	Z44	X45	Y45	Z45	X46	Y46	Z46	X47	Y47	Z47	X48	Y48	Z48	X49	Y49	Z49	X50	Y50	Z50	X51	Y51	Z51	X52	Y52	Z52	X53	Y53	Z53	X54	Y54	Z54	X55	Y55	Z55	X56	Y56	Z56	X57	Y57	Z57	X58	Y58	Z58	X59	Y59	Z59	X60	Y60	Z60	X61	Y61	Z61	X62	Y62	Z62	X63	Y63	Z63	X64	Y64	Z64	X65	Y65	Z65	X66	Y66	Z66	X67	Y67	Z67	X68	Y68	Z68	X69	Y69	Z69	X70	Y70	Z70	X71	Y71	Z71	X72	Y72	Z72	X73	Y73	Z73	X74	Y74	Z74	X75	Y75	Z75	X76	Y76	Z76	X77	Y77	Z77	X78	Y78	Z78	X79	Y79	Z79
																																																																																																																																																																																																																																														
260	1.295	359.7854919	1572.622314	-1216.128418	301.3170776	1587.89917	-1139.426147	296.5534973	1588.110474	-1291.557861	134.6930695	1449.208252	-1211.994751	79.58670044	1244.492554	-1226.563354	75.26467896	1212.198975	-1230.817871	70.2179184	1151.326294	-1178.914795	79.56513214	1150.404419	-1227.804932	92.72727966	1109.579956	-1226.598633	69.32176971	1087.155396	-1225.88269	70.5951004	1027.540405	-1172.778076	62.94008255	1025.388916	-1222.383667	73.66753387	975.9697876	-1247.795654	80.81668091	985.4169922	-1197.99646	50.0913353	927.4910889	-1209.207153	289.4728699	942.3744507	-1336.562134	293.630127	941.9431152	-1109.030151	85.40352631	991.8338013	-1259.531982	86.16532898	990.5045166	-1170.442383	202.8845367	737.5968628	-1443.668579	153.5360107	677.1403809	-1426.605103	201.8962097	675.7775269	-1441.216431	192.7279053	497.9654846	-1427.060791	216.3601379	466.1149902	-1283.032104	152.4455414	442.4031067	-1428.088257	144.953186	326.4578552	-1449.764771	101.8092575	260.3773499	-1444.440186	151.1224213	264.528595	-1450.060913	126.1842499	85.36732483	-1434.112549	169.3762054	96.34840393	-1350.475464	78.42752075	38.95930862	-1374.84021	289.6600952	47.31143951	-1391.244873	238.5662537	32.10005188	-1492.1604	176.07724	708.296875	-1006.356934	207.2586823	635.9933472	-992.6858521	161.5375061	647.7037964	-1009.595276	161.2569427	496.8937683	-1013.830383	209.1441498	461.543457	-1151.765869	117.1881714	442.5561829	-1015.289612	91.72227478	323.3416138	-998.3485107	131.291214	256.0723572	-983.1574707	85.22338867	262.2561951	-1002.285339	90.09921265	86.8120575	-1016.814575	153.0997467	97.03168488	-1084.280396	58.07534027	38.30541992	-1077.666504	261.5975037	43.19378662	-1022.258362	202.3571625	40.95775604	-937.2070313	283.5238647	1365.779297	-1224.71582	320.355835	1208.142212	-1226.625977	144.6121826	1412.818848	-1400.265015	131.806488	1347.676025	-1513.771729	122.2435837	1297.155151	-1556.08252	156.492218	1332.411255	-1573.222656	167.7391052	1294.914307	-1681.530273	190.1246338	1208.699097	-1631.391479	196.5540466	1262.932251	-1767.325684	201.9971619	1226.377563	-1821.658813	240.633667	1257.594727	-1815.424316	309.8455505	1185.777954	-1860.720947	252.5883484	1208.073975	-1903.267944	162.1307068	1402.297241	-1041.480103	172.3898773	1335.387085	-909.0106812	222.6525574	1326.613403	-866.0754395	177.3486023	1315.544678	-845.5968628	169.7590637	1288.965576	-795.0586548	224.966507	1195.102173	-808.7766113	227.5236511	1270.969116	-672.5932007	278.2852783	1259.117432	-633.1138916	233.3867188	1246.693604	-612.6078491	315.6579895	1178.742676	-580.1808472	249.7823486	1211.41748	-543.5322876	1512.077393	1285.455811	-2307.39624	1540.637695	1283.402466	0	204.544	482.0402	-1355.0464	185.2005	479.2186	-1082.7981	119.8824	81.466	-1049.6768	146.2462	80.2866	-1393.3006	233.7529	873.5041	-1139.388	230.7399	873.8168	-1304.296
261	1.3	359.7744751	1572.612427	-1216.134888	301.3187866	1587.900146	-1139.432495	296.5399475	1588.111938	-1291.562012	134.6757507	1449.206177	-1211.998901	79.58137512	1244.493164	-1226.570679	75.27056122	1212.189697	-1230.837524	70.21031952	1151.328247	-1178.925293	79.53765106	1150.400391	-1227.817505	92.72154236	1109.579346	-1226.604736	69.31507874	1087.150635	-1225.88855	70.59709167	1027.539917	-1172.785645	62.93899918	1025.384888	-1222.383423	73.7233429	975.9544678	-1247.770752	80.84992218	985.4084473	-1198.023682	50.08086014	927.4927368	-1209.211304	289.4794922	942.375	-1336.559448	293.6289368	941.9485474	-1109.029663	85.3993988	991.8355103	-1259.53479	86.16722107	990.5061035	-1170.446167	202.8957214	737.6010132	-1443.664063	153.5475159	677.1503296	-1426.602539	201.9135437	675.8296509	-1441.302368	192.7191772	497.9680481	-1427.055176	216.3548889	466.1128235	-1283.016113	152.4448395	442.4030151	-1428.078125	144.9451447	326.4645691	-1449.75647	101.8003235	260.3810425	-1444.442139	151.1200256	264.5335388	-1450.063965	126.1927338	85.37081909	-1434.114746	169.3803406	96.34568787	-1350.472412	78.44083405	38.96047592	-1374.833374	289.6520386	47.3053093	-1391.250732	238.5582275	32.09259033	-1492.164429	176.0717316	708.2953491	-1006.360291	207.2541199	635.9995117	-992.6801758	161.5357361	647.7199097	-1009.594482	161.2610016	496.8952942	-1013.831238	209.1585388	461.5533447	-1151.766479	117.1874084	442.5574341	-1015.290588	91.75711823	323.3349915	-998.3729858	131.2931519	256.0769348	-983.15802	85.22670746	262.2612915	-1002.278442	90.09726715	86.8144989	-1016.815613	153.0916443	97.03240204	-1084.283081	58.06716156	38.2948494	-1077.66748	261.5977783	43.19313812	-1022.253418	202.3604279	40.95476532	-937.2088013	283.511261	1365.780396	-1224.716431	320.34729	1208.149902	-1226.641968	144.6103973	1412.82312	-1400.271729	131.8138885	1347.683716	-1513.781006	122.2355881	1297.153931	-1556.084717	156.4994812	1332.407959	-1573.227539	167.7274628	1294.911743	-1681.539917	190.0830383	1208.79248	-1631.534058	196.5493317	1262.918335	-1767.338867	201.9903412	1226.374512	-1821.663208	240.623703	1257.597656	-1815.437988	309.8450317	1185.783569	-1860.723022	252.5907135	1208.072144	-1903.276978	162.1230774	1402.299438	-1041.484009	172.4082031	1335.415649	-909.0714111	222.6618958	1326.595947	-866.0854492	177.3420105	1315.541626	-845.5997925	169.7410278	1288.955566	-795.0626221	224.9625244	1195.094604	-808.7871094	227.5054169	1270.968018	-672.6074219	278.2893677	1259.130493	-633.1168213	233.3642731	1246.686523	-612.6297607	315.6652527	1178.739746	-580.1942139	249.7784424	1211.410034	-543.5441284	1512.095459	1285.457642	-2307.407715	1540.644897	1283.39209	0	204.537	482.0404	-1355.0356	185.2098	479.2243	-1082.7989	119.8771	81.4677	-1049.6787	146.2529	80.287	-1393.3004	233.7536	873.5083	-1139.387	230.7461	873.8174	-1304.295
262	1.305	359.761261	1572.606812	-1216.138184	301.312439	1587.898315	-1139.435425	296.5267029	1588.111938	-1291.565796	134.6651154	1449.203125	-1212.000488	79.56778717	1244.502075	-1226.581909	75.27140808	1212.181641	-1230.857422	70.19797516	1151.322876	-1178.941162	79.52856445	1150.399902	-1227.831543	92.71121216	1109.575195	-1226.604858	69.31242371	1087.146973	-1225.890381	70.59793091	1027.534912	-1172.784668	62.93338013	1025.379517	-1222.388428	73.68780518	975.9629517	-1247.795776	80.81796265	985.4126587	-1198.026245	50.08533096	927.4951172	-1209.226685	289.4809265	942.3779907	-1336.558838	293.6271667	941.9547729	-1109.029175	85.39542389	991.8275757	-1259.531006	86.15948486	990.5050049	-1170.445557	202.8947144	737.5965576	-1443.645508	153.5479279	677.1565552	-1426.605103	201.9166107	675.7423096	-1441.108276	192.7154083	497.9689636	-1427.058716	216.3426056	466.1151123	-1282.989868	152.4377594	442.4043274	-1428.081787	144.9360504	326.4775085	-1449.772095	101.7919159	260.3811951	-1444.439941	151.1167297	264.5416565	-1450.064453	126.1822357	85.36862946	-1434.110474	169.378952	96.34524536	-1350.478027	78.43565369	38.96060562	-1374.839844	289.6488647	47.30043793	-1391.247681	238.5507355	32.09072495	-1492.164429	176.0680542	708.3013306	-1006.362305	207.2566833	635.994812	-992.673584	161.5313416	647.7168579	-1009.587891	161.2570801	496.9002991	-1013.822998	209.1431427	461.539978	-1151.764038	117.1806335	442.5568542	-1015.289856	91.75234985	323.3363342	-998.3735962	131.2813416	256.0672913	-983.1485596	85.22531891	262.2593689	-1002.281555	90.10125732	86.80960846	-1016.811768	153.0946198	97.02867126	-1084.279663	58.0656395	38.29072952	-1077.666504	261.5996399	43.19878006	-1022.244141	202.3575745	40.95270538	-937.2077026	283.4989624	1365.781616	-1224.732544	320.3319702	1208.138062	-1226.646973	144.6111298	1412.823364	-1400.278687	131.8019409	1347.704346	-1513.782715	122.224205	1297.165527	-1556.093384	156.5051117	1332.414551	-1573.237427	167.7190704	1294.906738	-1681.539551	190.0610352	1208.78894	-1631.54126	196.5249481	1262.918579	-1767.326782	201.9841614	1226.371704	-1821.669312	240.6139374	1257.594238	-1815.436035	309.8481445	1185.78894	-1860.727539	252.5866699	1208.074707	-1903.275879	162.1023865	1402.29126	-1041.492188	172.366745	1335.367798	-909.050415	222.6609192	1326.583618	-866.0945435	177.3324738	1315.530029	-845.6077271	169.7408142	1288.953125	-795.0795898	224.9641266	1195.092529	-808.795166	227.5217133	1270.941895	-672.6256104	278.296875	1259.017334	-633.1741333	233.5326233	1246.589844	-612.6286011	315.6624451	1178.740112	-580.1953735	249.7821503	1211.405029	-543.5605469	1512.082275	1285.452271	-2307.397217	1540.647095	1283.401978	0	204.529	482.042	-1355.0243	185.2001	479.2201	-1082.7935	119.8809	81.4633	-1049.6751	146.247	80.2857	-1393.3014	233.7555	873.5112	-1139.3863	230.7504	873.8179	-1304.295
263	1.31	359.7416077	1572.6073	-1216.159424	301.3113403	1587.886108	-1139.438599	296.5119629	1588.112305	-1291.570068	134.6501923	1449.20459	-1211.999023	79.57369995	1244.490967	-1226.598633	75.25799561	1212.18335	-1230.862061	70.18296051	1151.321655	-1178.957031	79.5391922	1150.397461	-1227.841431	92.70797729	1109.569336	-1226.623535	69.31072998	1087.142456	-1225.898193	70.58879852	1027.533813	-1172.78772	62.93082047	1025.37561	-1222.389771	73.72024536	975.9683838	-1247.791504	80.83649445	985.3933716	-1198.030151	50.08944321	927.4725342	-1209.233032	289.4744873	942.3693848	-1336.560059	293.6245422	941.9575195	-1109.030518	85.39373016	991.8198853	-1259.535278	86.15608215	990.5065918	-1170.444946	202.8952637	737.604187	-1443.640259	153.539917	677.1565552	-1426.605835	201.8421631	675.6201172	-1440.719849	192.7099457	497.9776001	-1427.055664	216.3326569	466.105011	-1282.931396	152.419754	442.4132385	-1428.088501	144.9247894	326.4779663	-1449.776245	101.7922211	260.380249	-1444.439697	151.1089172	264.5502319	-1450.072144	126.1925888	85.37212372	-1434.117065	169.3784485	96.34570313	-1350.484131	78.41704559	38.96312332	-1374.846313	289.6539307	47.30313492	-1391.247925	238.5576019	32.08826828	-1492.163696	176.0702057	708.3046265	-1006.360535	207.2561188	636.0001831	-992.6773071	161.5340118	647.7185059	-1009.581543	161.2515869	496.8980408	-1013.824707	209.1583405	461.5516968	-1151.762451	117.1831131	442.5542297	-1015.291565	91.59983826	323.3546448	-998.0703735	131.287384	256.0697937	-983.1472778	85.22473145	262.2539978	-1002.280396	90.10136414	86.81265259	-1016.814941	153.0881042	97.03450775	-1084.277344	58.06838226	38.29592514	-1077.676147	261.5953369	43.19357681	-1022.255188	202.3606567	40.9552002	-937.2099609	283.4822388	1365.778687	-1224.731812	320.3283997	1208.138916	-1226.655762	144.6571045	1412.785645	-1400.271362	131.804718	1347.705444	-1513.803467	122.2242661	1297.190796	-1556.090088	156.5019684	1332.409424	-1573.241089	167.7056122	1294.9021	-1681.544678	190.0476837	1208.784546	-1631.54187	196.468689	1262.898315	-1767.231689	201.9836121	1226.371704	-1821.675293	240.6101074	1257.590576	-1815.441406	309.8470154	1185.798828	-1860.733765	252.5831757	1208.074707	-1903.278809	162.0907898	1402.29126	-1041.502197	172.329071	1335.361694	-909.0522461	222.6472321	1326.581421	-866.1124268	177.3253632	1315.517456	-845.6151123	169.7362213	1288.945801	-795.1005249	224.9584961	1195.082764	-808.8127441	227.5155334	1270.952271	-672.612854	278.3865051	1258.92981	-633.0472412	233.5256653	1246.584473	-612.6448364	315.6542664	1178.733887	-580.21521	249.7767334	1211.396729	-543.5705566	1512.072144	1285.448242	-2307.392822	1540.652222	1283.414185	0	204.5213	482.0413	-1354.9935	185.205	479.2249	-1082.7936	119.8775	81.4678	-1049.6756	146.2523	80.2877	-1393.3088	233.7524	873.5124	-1139.3832	230.7446	873.8109	-1304.292
